HIERARCHY
ROOT Hips
{
	OFFSET -80.168388 91.772041 -268.984589
	CHANNELS 6 Xposition Yposition Zposition Xrotation Yrotation Zrotation 
	JOINT RightUpLeg
	{
		OFFSET 0.103457 1.857818 10.548502
		CHANNELS 3 Xrotation Yrotation Zrotation
		JOINT RightLeg
		{
			OFFSET 43.500000 -0.000011 -0.000004
			CHANNELS 3 Xrotation Yrotation Zrotation
			JOINT RightFoot
			{
				OFFSET 42.372192 -0.000004 -0.000008
				CHANNELS 3 Xrotation Yrotation Zrotation
				JOINT RightToe
				{
					OFFSET 17.300014 0.000006 0.000001
					CHANNELS 3 Xrotation Yrotation Zrotation
					End Site
					{
						OFFSET 0.000000 0.000000 0.000000
					}
				}
			}
		}
	}
	JOINT LeftUpLeg
	{
		OFFSET 0.103457 1.857817 -10.548505
		CHANNELS 3 Xrotation Yrotation Zrotation
		JOINT LeftLeg
		{
			OFFSET 43.500046 -0.000004 0.000011
			CHANNELS 3 Xrotation Yrotation Zrotation
			JOINT LeftFoot
			{
				OFFSET 42.372257 0.000000 0.000015
				CHANNELS 3 Xrotation Yrotation Zrotation
				JOINT LeftToe
				{
					OFFSET 17.300003 -0.000000 0.000002
					CHANNELS 3 Xrotation Yrotation Zrotation
					End Site
					{
						OFFSET 0.000000 0.000000 0.000000
					}
				}
			}
		}
	}
	JOINT Spine
	{
		OFFSET 6.901961 -2.603721 -0.000001
		CHANNELS 3 Xrotation Yrotation Zrotation
		JOINT Spine1
		{
			OFFSET 12.588108 0.000002 -0.000001
			CHANNELS 3 Xrotation Yrotation Zrotation
			JOINT Spine2
			{
				OFFSET 12.343199 -0.000020 0.000006
				CHANNELS 3 Xrotation Yrotation Zrotation
				JOINT Neck
				{
					OFFSET 25.832905 0.000017 0.000000
					CHANNELS 3 Xrotation Yrotation Zrotation
					JOINT Head
					{
						OFFSET 11.766604 -0.000006 0.000004
						CHANNELS 3 Xrotation Yrotation Zrotation
						End Site
						{
							OFFSET 0.000000 0.000000 0.000000
						}
					}
				}
				JOINT RightShoulder
				{
					OFFSET 19.745903 -1.480350 6.000100
					CHANNELS 3 Xrotation Yrotation Zrotation
					JOINT RightArm
					{
						OFFSET 11.284130 -0.000016 -0.000016
						CHANNELS 3 Xrotation Yrotation Zrotation
						JOINT RightForeArm
						{
							OFFSET 33.000046 0.000004 0.000031
							CHANNELS 3 Xrotation Yrotation Zrotation
							JOINT RightHand
							{
								OFFSET 25.199999 0.000027 0.000001
								CHANNELS 3 Xrotation Yrotation Zrotation
								End Site
								{
									OFFSET 0.000000 0.000000 0.000000
								}
							}
						}
					}
				}
				JOINT LeftShoulder
				{
					OFFSET 19.746094 -1.480375 -6.000080
					CHANNELS 3 Xrotation Yrotation Zrotation
					JOINT LeftArm
					{
						OFFSET 11.284131 -0.000016 -0.000017
						CHANNELS 3 Xrotation Yrotation Zrotation
						JOINT LeftForeArm
						{
							OFFSET 33.000095 0.000009 0.000020
							CHANNELS 3 Xrotation Yrotation Zrotation
							JOINT LeftHand
							{
								OFFSET 25.199789 0.000132 0.000423
								CHANNELS 3 Xrotation Yrotation Zrotation
								End Site
								{
									OFFSET 0.000000 0.000000 0.000000
								}
							}
						}
					}
				}
			}
		}
	}
}
MOTION
Frames: 7
Frame Time: 0.033333
264.698914 74.705780 371.908691 104.389196 0.363657 123.896107 140.746539 4.735706 168.479989 -65.709213 -1.275374 4.098893 83.841084 -2.184758 3.135115 21.454555 0.003103 0.000017 171.462214 -2.756501 179.686513 -98.825816 -3.424369 6.035690 81.854551 -2.881681 5.092151 21.454545 -0.003093 -0.000002 11.382756 -1.788200 -0.821620 12.786462 -3.474385 -1.836932 12.467914 -3.485565 -1.815917 10.243439 11.097350 4.613799 -20.172291 -14.565365 11.593895 178.520395 -69.014806 0.196706 -11.430803 45.847399 -5.811005 -90.660263 -3.928606 2.650999 -9.024119 -14.170870 37.246678 -178.897408 74.434794 2.594962 -19.027355 -53.226483 0.349078 -116.454999 1.501018 -3.566249 -8.815608 2.835973 -44.169539 
268.076111 76.873360 378.509613 104.499094 0.060483 124.461415 146.992747 5.019305 168.905100 -64.731082 -1.110484 4.739746 87.631204 -2.687723 3.271192 21.454558 0.003109 0.000017 162.555797 -0.733398 -178.653215 -98.403936 -3.322185 7.676676 81.901447 -4.316085 3.909803 21.454555 -0.003085 0.000001 11.198607 -1.703164 -1.360653 12.430616 -3.250028 -2.897783 12.112401 -3.267592 -2.878118 9.191865 10.815004 5.394109 -19.755656 -15.147761 12.644780 177.418603 -69.758696 1.318173 -15.924610 46.956082 -10.970597 -91.881023 -3.265986 2.659250 -10.078671 -15.196749 37.764860 -175.748417 74.116719 5.817023 -13.938893 -56.133626 -6.609872 -106.763097 2.519016 -3.223520 -4.074014 2.113745 -50.016758 
271.198700 79.655289 385.063690 104.048595 -0.073500 124.768309 154.237693 4.977094 170.454201 -60.703607 -1.232185 4.928142 89.308275 -2.888445 2.993142 21.454563 0.003115 0.000019 155.158566 1.533201 -177.641049 -92.450736 -2.676010 7.547120 80.797395 -4.428199 3.158452 21.454555 -0.003090 0.000002 10.987841 -1.407131 -1.893713 12.010811 -2.609800 -3.924380 11.693174 -2.633573 -3.908579 7.769328 10.382233 6.176704 -19.163404 -15.445899 13.557649 178.415101 -71.015198 0.265073 -19.444910 48.783503 -13.499410 -94.478079 -2.554450 2.725794 -10.557540 -15.885490 36.994278 -174.297425 73.922495 7.302970 -6.753690 -57.770430 -14.182529 -98.774740 3.559990 -2.944086 -2.047444 3.655126 -54.583013 
274.191589 82.655731 391.652802 103.147201 -0.129898 124.582705 161.572824 4.389206 172.275498 -55.048176 -1.540985 4.709285 87.867993 -2.750248 2.645179 21.454558 0.003111 0.000018 150.098885 3.046796 -177.329661 -81.395371 -1.401723 7.342428 80.261266 -4.445154 2.757725 21.454557 -0.003090 -0.000001 10.741547 -0.967717 -2.210123 11.505309 -1.710590 -4.506013 11.188119 -1.737884 -4.495633 6.295426 9.909680 6.765334 -18.976777 -15.545526 14.240506 -179.700419 -72.058113 -1.692605 -21.612112 50.402298 -13.505916 -97.697052 -1.803417 2.817523 -10.387211 -15.477195 35.670929 -172.351805 73.440120 9.295038 2.539500 -56.930091 -23.177535 -93.984762 4.086082 -2.767850 -3.030908 7.470483 -51.761527 
277.129303 85.560539 398.357391 102.114600 -0.287716 123.892883 168.152468 3.438503 173.785148 -49.397728 -2.024507 4.181110 82.587629 -2.374680 2.157170 21.454558 0.003098 0.000017 148.072778 3.843199 -176.428076 -65.567125 -0.732066 7.691173 78.541834 -4.586776 3.239312 21.454551 -0.003080 0.000001 10.423717 -0.514790 -2.319368 10.851472 -0.809598 -4.676844 10.534489 -0.837924 -4.671895 5.396159 9.618502 7.179984 -19.324647 -15.669818 14.809293 -177.708599 -72.604098 -3.747612 -21.886305 51.438011 -11.321591 -101.033401 -1.081112 2.916272 -9.548016 -13.574367 34.394483 -169.342410 73.036408 12.383054 11.691312 -54.222700 -32.256029 -91.968484 4.013448 -2.673146 -3.887414 12.372633 -41.373656 
280.028015 87.938789 405.118011 100.995904 -0.462187 123.190125 173.545968 2.149595 175.147852 -45.149927 -2.151599 4.049935 76.606206 -3.239544 -1.529301 21.454557 0.003107 0.000018 149.338029 3.321897 -173.590105 -45.785924 -1.286713 8.527622 78.067635 -5.437683 2.266592 21.454551 -0.003094 0.000000 10.017657 -0.121253 -2.372339 10.023283 -0.036445 -4.746158 9.706372 -0.065212 -4.745867 5.322483 9.791570 7.295593 -19.683437 -15.746460 15.048823 -175.407809 -72.829112 -6.113288 -20.120300 51.722714 -7.168885 -104.342806 -0.412918 3.016866 -8.178580 -10.882446 32.810914 -166.536978 73.296925 15.262944 20.374113 -51.357087 -40.636689 -91.627384 3.611092 -2.629866 -3.155962 16.186956 -30.230496 
282.918915 89.463547 411.980713 101.059793 -1.218066 122.878778 176.487334 2.057907 176.501200 -45.282679 -1.659899 4.066437 71.239071 -4.388567 -4.556228 21.454568 0.003116 0.000014 152.148993 4.147094 -171.442762 -26.897251 -0.742447 6.775788 75.720891 -3.839606 3.586343 21.454551 -0.003097 -0.000001 9.506607 -0.109334 -2.495270 9.000934 -0.024294 -4.991398 8.684176 -0.054532 -4.991166 5.977905 10.365832 6.780696 -19.642818 -15.499286 14.432984 -172.951987 -73.116711 -8.637102 -16.967300 51.209388 -1.467090 -107.450501 0.200305 3.111277 -6.749443 -8.413251 30.504212 -163.430103 74.343822 18.442018 29.795143 -49.268296 -48.428336 -91.988885 3.227480 -2.619115 -2.253647 16.833310 -24.246512 
